<?xml version="1.0" encoding="utf-8" standalone="yes"?><!-- Uploaded to: SVG Repo, www.svgrepo.com, Generator: SVG Repo Mixer Tools --><svg xmlns="http://www.w3.org/2000/svg" width="512px" height="145px" viewBox="0 0 512 145" preserveAspectRatio="xMinYMin meet"><g fill="#83CD29"><path d="M471.05,51.611 c-1.244,0 -2.454,.257 -3.525,.863 l-33.888,19.57 c-2.193,1.264 -3.526,3.65 -3.526,6.189 v39.069 c0,2.537 1.333,4.92 3.526,6.187 l8.85,5.109 c4.3,2.119 5.885,2.086 7.842,2.086 c6.366,0 10.001,-3.863 10.001,-10.576 V81.542 c0,-.545 -.472,-.935 -1.007,-.935 h-4.245 c-.544,0 -1.007,.39 -1.007,.935 v38.566 c0,2.975 -3.1,5.968 -8.13,3.453 l-9.21,-5.396 c-.326,-.177 -.576,-.49 -.576,-.863 v-39.07 c0,-.37 .247,-.747 .576,-.935 L470.547,57.8 a.998,.998 0 0 1 1.007,0 l33.817,19.498 c.322,.194 .576,.553 .576,.936 v39.069 c0,.373 -.188,.755 -.504,.935 l-33.889,19.498 c-.29,.173 -.69,.173 -1.007,0 l-8.706,-5.18 a.905,.905 0 0 0 -.863,0 c-2.403,1.362 -2.855,1.52 -5.109,2.302 c-.555,.194 -1.398,.495 .288,1.44 l11.368,6.69 a6.995,6.995 0 0 0 3.526,.936 a6.949,6.949 0 0 0 3.525,-.935 l33.889,-19.499 c2.193,-1.275 3.525,-3.65 3.525,-6.187 v-39.07 c0,-2.538 -1.332,-4.92 -3.525,-6.187 l-33.889,-19.57 c-1.062,-.607 -2.28,-.864 -3.525,-.864 "></path><path d="M480.116 79.528c-9.65 0-15.397 4.107-15.397 10.937 0 7.408 5.704 9.444 14.966 10.36 11.08 1.085 11.943 2.712 11.943 4.893 0 3.783-3.016 5.396-10.144 5.396-8.957 0-10.925-2.236-11.584-6.691-.078-.478-.447-.864-.936-.864h-4.389c-.54 0-1.007.466-1.007 1.008 0 5.703 3.102 12.447 17.916 12.447 10.723 0 16.908-4.209 16.908-11.584 0-7.31-4.996-9.273-15.398-10.648-10.51-1.391-11.512-2.072-11.512-4.533 0-2.032.85-4.75 8.634-4.75 6.954 0 9.524 1.5 10.577 6.189.092.44.48.791.935.791h4.39c.27 0 .532-.166.719-.36.184-.207.314-.44.288-.719-.68-8.074-6.064-11.872-16.909-11.872z"></path></g><path d="M271.821,.383 a2.181,2.181 0 0 0 -1.08,.287 a2.18,2.18 0 0 0 -1.079,1.871 v55.042 c0,.54 -.251,1.024 -.719,1.295 a1.501,1.501 0 0 1 -1.511,0 l-8.994,-5.18 a4.31,4.31 0 0 0 -4.317,0 l-35.903,20.721 c-1.342,.775 -2.158,2.264 -2.158,3.814 v41.443 c0,1.548 .817,2.966 2.158,3.741 l35.903,20.722 a4.3,4.3 0 0 0 4.317,0 l35.903,-20.722 a4.308,4.308 0 0 0 2.159,-3.741 V16.356 a4.386,4.386 0 0 0 -2.23,-3.814 L272.9,.598 c-.335,-.187 -.707,-.22 -1.079,-.215 M40.861,52.115 c-.684,.027 -1.328,.147 -1.942,.503 L3.015,73.34 a4.3,4.3 0 0 0 -2.158,3.741 L.929,132.7 c0,.773 .399,1.492 1.079,1.87 a2.096,2.096 0 0 0 2.159,0 l21.297,-12.231 c1.349,-.802 2.23,-2.196 2.23,-3.742 V92.623 c0,-1.55 .815,-2.972 2.159,-3.742 l9.065,-5.252 a4.251,4.251 0 0 1 2.159,-.576 c.74,0 1.5,.185 2.158,.576 l9.066,5.252 a4.296,4.296 0 0 1 2.159,3.742 v25.973 c0,1.546 .89,2.95 2.23,3.742 l21.297,12.232 a2.096,2.096 0 0 0 2.159,0 a2.164,2.164 0 0 0 1.08,-1.871 l.07,-55.618 a4.28,4.28 0 0 0 -2.158,-3.741 L43.235,52.618 c-.607,-.356 -1.253,-.475 -1.942,-.503 h-.432 m322.624,.503 c-.75,0 -1.485,.19 -2.158,.576 l-35.903,20.722 a4.306,4.306 0 0 0 -2.159,3.741 V119.1 c0,1.559 .878,2.971 2.23,3.742 l35.616,20.29 c1.315,.75 2.921,.807 4.245,.07 l21.585,-12.015 c.685,-.38 1.148,-1.09 1.151,-1.87 a2.126,2.126 0 0 0 -1.079,-1.871 l-36.119,-20.722 c-.676,-.386 -1.151,-1.167 -1.151,-1.943 v-12.95 c0,-.775 .48,-1.485 1.151,-1.871 l11.224,-6.476 a2.155,2.155 0 0 1 2.159,0 L375.5,89.96 a2.152,2.152 0 0 1 1.08,1.87 v10.217 a2.15,2.15 0 0 0 1.079,1.87 c.673,.389 1.487,.39 2.158,0 L401.331,91.4 a4.325,4.325 0 0 0 2.159,-3.742 v-10 c0,-1.545 -.82,-2.966 -2.159,-3.742 l-35.687,-20.722 a4.279,4.279 0 0 0 -2.159,-.575 m-107.35,30.939 c.188,0 .408,.046 .576,.143 l12.304,7.123 c.334,.193 .576,.55 .576,.935 v14.246 c0,.387 -.24,.743 -.576,.936 l-12.304,7.123 a1.088,1.088 0 0 1 -1.079,0 l-12.303,-7.123 c-.335,-.194 -.576,-.549 -.576,-.936 V91.758 c0,-.386 .242,-.74 .576,-.935 l12.303,-7.122 a.948,.948 0 0 1 .504,-.143 v-.001 " fill="#404137"></path><path d="M148.714,52.402 c-.748,0 -1.488,.19 -2.158,.576 l-35.903,20.65 c-1.343,.773 -2.159,2.265 -2.159,3.813 v41.443 c0,1.55 .817,2.966 2.159,3.742 l35.903,20.721 a4.297,4.297 0 0 0 4.317,0 l35.903,-20.721 a4.308,4.308 0 0 0 2.158,-3.742 V77.441 c0,-1.55 -.816,-3.04 -2.158,-3.813 l-35.903,-20.65 a4.297,4.297 0 0 0 -2.159,-.576 M363.413,89.385 c-.143,0 -.302,0 -.431,.072 l-6.907,4.029 a.84,.84 0 0 0 -.432,.72 v7.914 c0,.298 .172,.571 .432,.72 l6.907,3.957 c.259,.15 .535,.15 .791,0 l6.907,-3.958 a.846,.846 0 0 0 .432,-.719 v-7.915 a.846,.846 0 0 0 -.432,-.719 l-6.907,-4.03 c-.128,-.075 -.216,-.07 -.36,-.07 " fill="#83CD29"></path></svg>